<svg width="20" height="20" viewBox="0 0 20 20" fill="none" xmlns="http://www.w3.org/2000/svg">
<g id="Frame" clip-path="url(#clip0_618_852)">
<g id="SVGRepo_iconCarrier">
<path id="Vector" d="M15.4581 10.6254C15.4862 13.652 18.1132 14.6592 18.1423 14.672C18.1201 14.743 17.7226 16.1074 16.7583 17.5166C15.9247 18.735 15.0595 19.9488 13.6966 19.974C12.3575 19.9986 11.9269 19.1799 10.3958 19.1799C8.86524 19.1799 8.3868 19.9489 7.11913 19.9987C5.80361 20.0485 4.80181 18.6812 3.96133 17.4673C2.24383 14.9842 0.931304 10.4508 2.69369 7.39061C3.56921 5.87092 5.13383 4.90859 6.83208 4.88391C8.12389 4.85927 9.34317 5.753 10.1329 5.753C10.9221 5.753 12.4038 4.67821 13.9615 4.83606C14.6136 4.8632 16.4441 5.09947 17.6195 6.81993C17.5248 6.87864 15.4354 8.09499 15.4581 10.6254ZM12.9413 3.1933C13.6397 2.34789 14.1098 1.171 13.9815 0C12.9748 0.0404618 11.7574 0.670851 11.0354 1.5158C10.3882 2.26404 9.82146 3.46164 9.97438 4.60946C11.0965 4.69628 12.2428 4.03925 12.9413 3.1933Z" fill="#1E1F24"/>
</g>
</g>
<defs>
<clipPath id="clip0_618_852">
<rect width="20" height="20" fill="white"/>
</clipPath>
</defs>
</svg>
