<svg width="18" height="18" viewBox="0 0 18 18" fill="none" xmlns="http://www.w3.org/2000/svg">
<g id="Frame" clip-path="url(#clip0_618_844)">
<g id="SVGRepo_iconCarrier">
<path id="Vector" d="M17.7855 9.16838C17.7855 8.43093 17.7257 7.89279 17.5961 7.33472H9.17517V10.6632H14.1181C14.0185 11.4904 13.4803 12.7361 12.2844 13.5732L12.2677 13.6846L14.9302 15.7472L15.1147 15.7657C16.8088 14.201 17.7855 11.899 17.7855 9.16838Z" fill="#4285F4"/>
<path id="Vector_2" d="M9.17513 17.9382C11.5967 17.9382 13.6297 17.1409 15.1146 15.7657L12.2844 13.5732C11.527 14.1014 10.5105 14.4701 9.17513 14.4701C6.80332 14.4701 4.79027 12.9055 4.07267 10.743L3.96749 10.7519L1.19893 12.8945L1.16272 12.9952C2.63762 15.9251 5.66719 17.9382 9.17513 17.9382Z" fill="#34A853"/>
<path id="Vector_3" d="M4.07269 10.743C3.88334 10.1849 3.77376 9.58692 3.77376 8.96908C3.77376 8.35117 3.88335 7.75325 4.06273 7.19519L4.05771 7.07633L1.25445 4.89929L1.16273 4.94292C0.554856 6.15874 0.206055 7.52406 0.206055 8.96908C0.206055 10.4141 0.554856 11.7793 1.16273 12.9952L4.07269 10.743Z" fill="#FBBC05"/>
<path id="Vector_4" d="M9.17512 3.46802C10.8593 3.46802 11.9954 4.19551 12.6431 4.80346L15.1744 2.33196C13.6198 0.886946 11.5967 0 9.17512 0C5.66719 0 2.63762 2.01305 1.16272 4.94292L4.06271 7.19519C4.79027 5.03265 6.80332 3.46802 9.17512 3.46802Z" fill="#EB4335"/>
</g>
</g>
<defs>
<clipPath id="clip0_618_844">
<rect width="18" height="18" fill="white"/>
</clipPath>
</defs>
</svg>
