<svg width="28" height="24" viewBox="0 0 28 24" fill="none" xmlns="http://www.w3.org/2000/svg">
<g id="SVGRepo_iconCarrier">
<path id="Vector" d="M7 0.333328V7.33333H0" fill="#EA4335"/>
<path id="Vector_2" d="M7 0.333328V7.33333H16.3333V12.1556L23.3333 6.47777V2.66666C23.3333 1.11111 22.5556 0.333328 21 0.333328" fill="#FFBA00"/>
<path id="Vector_3" d="M6.84448 23.6667V16.6667H16.3334V12L23.3334 17.5222V21.3333C23.3334 22.8889 22.5556 23.6667 21 23.6667" fill="#00AC47"/>
<path id="Vector_4" d="M16.3334 12L23.3334 6.32222V17.6778" fill="#00832D"/>
<path id="Vector_5" d="M23.3334 6.32192L26.6 3.67748C27.3 3.13303 28 3.13303 28 4.22192V19.7775C28 20.8664 27.3 20.8664 26.6 20.3219L23.3334 17.6775" fill="#00AC47"/>
<path id="Vector_6" d="M0 16.5111V21.3333C0 22.8889 0.777778 23.6667 2.33333 23.6667H7V16.5111" fill="#0066DA"/>
<path id="Vector_7" d="M0 7.33333H7V16.6667H0" fill="#2684FC"/>
</g>
</svg>
