<svg width="30" height="30" viewBox="0 0 30 30" fill="none" xmlns="http://www.w3.org/2000/svg">
<g id="ic:baseline-whatsapp">
<path id="Vector" d="M23.8125 6.1375C22.6665 4.97991 21.3015 4.06208 19.797 3.43756C18.2926 2.81304 16.6789 2.49432 15.05 2.5C8.225 2.5 2.6625 8.0625 2.6625 14.8875C2.6625 17.075 3.2375 19.2 4.3125 21.075L2.5625 27.5L9.125 25.775C10.9375 26.7625 12.975 27.2875 15.05 27.2875C21.875 27.2875 27.4375 21.725 27.4375 14.9C27.4375 11.5875 26.15 8.475 23.8125 6.1375ZM15.05 25.1875C13.2 25.1875 11.3875 24.6875 9.8 23.75L9.425 23.525L5.525 24.55L6.5625 20.75L6.3125 20.3625C5.28468 18.7212 4.73893 16.8241 4.7375 14.8875C4.7375 9.2125 9.3625 4.5875 15.0375 4.5875C17.7875 4.5875 20.375 5.6625 22.3125 7.6125C23.2719 8.56745 24.0321 9.70333 24.5492 10.9543C25.0664 12.2052 25.33 13.5464 25.325 14.9C25.35 20.575 20.725 25.1875 15.05 25.1875ZM20.7 17.4875C20.3875 17.3375 18.8625 16.5875 18.5875 16.475C18.3 16.375 18.1 16.325 17.8875 16.625C17.675 16.9375 17.0875 17.6375 16.9125 17.8375C16.7375 18.05 16.55 18.075 16.2375 17.9125C15.925 17.7625 14.925 17.425 13.75 16.375C12.825 15.55 12.2125 14.5375 12.025 14.225C11.85 13.9125 12 13.75 12.1625 13.5875C12.3 13.45 12.475 13.225 12.625 13.05C12.775 12.875 12.8375 12.7375 12.9375 12.5375C13.0375 12.325 12.9875 12.15 12.9125 12C12.8375 11.85 12.2125 10.325 11.9625 9.7C11.7125 9.1 11.45 9.175 11.2625 9.1625H10.6625C10.45 9.1625 10.125 9.2375 9.8375 9.55C9.5625 9.8625 8.7625 10.6125 8.7625 12.1375C8.7625 13.6625 9.875 15.1375 10.025 15.3375C10.175 15.55 12.2125 18.675 15.3125 20.0125C16.05 20.3375 16.625 20.525 17.075 20.6625C17.8125 20.9 18.4875 20.8625 19.025 20.7875C19.625 20.7 20.8625 20.0375 21.1125 19.3125C21.375 18.5875 21.375 17.975 21.2875 17.8375C21.2 17.7 21.0125 17.6375 20.7 17.4875Z" fill="white"/>
</g>
</svg>
