<svg width="55" height="55" viewBox="0 0 55 55" fill="none" xmlns="http://www.w3.org/2000/svg">
<g id="Icon">
<circle id="Ellipse 1" cx="27.5" cy="27.5" r="27.5" fill="#3B3B3B"/>
<g id="Group 9">
<path id="Vector" d="M16 31C17.6569 31 19 29.6569 19 28C19 26.3431 17.6569 25 16 25C14.3431 25 13 26.3431 13 28C13 29.6569 14.3431 31 16 31Z" fill="white"/>
<path id="Vector_2" d="M28 31C29.6569 31 31 29.6569 31 28C31 26.3431 29.6569 25 28 25C26.3431 25 25 26.3431 25 28C25 29.6569 26.3431 31 28 31Z" fill="white"/>
<path id="Vector_3" d="M40 31C41.6569 31 43 29.6569 43 28C43 26.3431 41.6569 25 40 25C38.3431 25 37 26.3431 37 28C37 29.6569 38.3431 31 40 31Z" fill="white"/>
</g>
</g>
</svg>
