<svg width="38" height="29" viewBox="0 0 38 29" fill="none" xmlns="http://www.w3.org/2000/svg">
<g id="india 1" clip-path="url(#clip0_317_143)">
<path id="Vector" d="M0 0H38V9.5H0V0Z" fill="#FF9933"/>
<path id="Vector_2" d="M0 9.5H38V19H0V9.5Z" fill="white"/>
<path id="Vector_3" d="M0 19H38V28.5H0V19Z" fill="#128807"/>
<g id="Group">
<path id="Vector_4" d="M19.0002 18.05C21.0989 18.05 22.8002 16.3487 22.8002 14.25C22.8002 12.1513 21.0989 10.45 19.0002 10.45C16.9015 10.45 15.2002 12.1513 15.2002 14.25C15.2002 16.3487 16.9015 18.05 19.0002 18.05Z" fill="#000088"/>
<path id="Vector_5" d="M18.9998 17.575C20.8362 17.575 22.3248 16.0864 22.3248 14.25C22.3248 12.4137 20.8362 10.925 18.9998 10.925C17.1635 10.925 15.6748 12.4137 15.6748 14.25C15.6748 16.0864 17.1635 17.575 18.9998 17.575Z" fill="white"/>
<path id="Vector_6" d="M19 14.915C19.3672 14.915 19.665 14.6173 19.665 14.25C19.665 13.8827 19.3672 13.585 19 13.585C18.6327 13.585 18.335 13.8827 18.335 14.25C18.335 14.6173 18.6327 14.915 19 14.915Z" fill="#000088"/>
<g id="d">
<g id="c">
<g id="b">
<g id="a">
<path id="Vector_7" d="M22.2747 14.8488C22.3658 14.8608 22.4493 14.7967 22.4613 14.7057C22.4733 14.6147 22.4092 14.5312 22.3181 14.5192C22.2271 14.5072 22.1436 14.5713 22.1316 14.6623C22.1196 14.7533 22.1837 14.8368 22.2747 14.8488Z" fill="#000088"/>
<path id="Vector_8" d="M18.9997 17.575L19.1137 15.58L18.9997 14.63L18.8857 15.58L18.9997 17.575Z" fill="#000088"/>
</g>
<g id="a_2">
<path id="Vector_9" d="M22.0088 15.676C22.0936 15.7112 22.1909 15.6709 22.226 15.586C22.2611 15.5012 22.2208 15.404 22.136 15.3688C22.0512 15.3337 21.9539 15.374 21.9188 15.4588C21.8837 15.5436 21.9239 15.6409 22.0088 15.676Z" fill="#000088"/>
<path id="Vector_10" d="M18.1399 17.4617L18.7663 15.5642L18.9021 14.617L18.5461 15.5052L18.1399 17.4617Z" fill="#000088"/>
</g>
</g>
<g id="b_2">
<g id="a_3">
<path id="Vector_11" d="M21.5369 16.406C21.6097 16.4619 21.7141 16.4482 21.77 16.3754C21.8259 16.3025 21.8122 16.1981 21.7393 16.1423C21.6665 16.0864 21.5621 16.1001 21.5062 16.1729C21.4503 16.2458 21.4641 16.3501 21.5369 16.406Z" fill="#000088"/>
<path id="Vector_12" d="M17.3372 17.1295L18.4334 15.4588L18.8097 14.5791L18.2359 15.3448L17.3372 17.1295Z" fill="#000088"/>
</g>
<g id="a_4">
<path id="Vector_13" d="M20.8921 16.9891C20.948 17.062 21.0524 17.0757 21.1252 17.0198C21.198 16.9639 21.2118 16.8596 21.1559 16.7867C21.1 16.7139 20.9956 16.7001 20.9228 16.756C20.8499 16.8119 20.8362 16.9163 20.8921 16.9891Z" fill="#000088"/>
<path id="Vector_14" d="M16.6486 16.6011L18.1399 15.2711L18.731 14.5187L17.9786 15.1098L16.6486 16.6011Z" fill="#000088"/>
</g>
</g>
</g>
<g id="c_2">
<g id="b_3">
<g id="a_5">
<path id="Vector_15" d="M20.1187 17.3855C20.1539 17.4704 20.2511 17.5107 20.336 17.4755C20.4208 17.4404 20.4611 17.3431 20.4259 17.2583C20.3908 17.1735 20.2935 17.1332 20.2087 17.1683C20.1239 17.2035 20.0836 17.3007 20.1187 17.3855Z" fill="#000088"/>
<path id="Vector_16" d="M16.1198 15.9125L17.9046 15.0137L18.6703 14.44L17.7906 14.8163L16.1198 15.9125Z" fill="#000088"/>
</g>
<g id="a_6">
<path id="Vector_17" d="M19.2692 17.5683C19.2812 17.6593 19.3647 17.7234 19.4557 17.7114C19.5468 17.6994 19.6108 17.6159 19.5988 17.5249C19.5869 17.4338 19.5034 17.3698 19.4123 17.3817C19.3213 17.3937 19.2572 17.4772 19.2692 17.5683Z" fill="#000088"/>
<path id="Vector_18" d="M15.7884 15.1106L17.7449 14.7043L18.633 14.3484L17.6859 14.4841L15.7884 15.1106Z" fill="#000088"/>
</g>
</g>
<g id="b_4">
<g id="a_7">
<path id="Vector_19" d="M18.4006 17.5249C18.3886 17.6159 18.4527 17.6994 18.5437 17.7114C18.6348 17.7234 18.7183 17.6593 18.7303 17.5683C18.7422 17.4772 18.6782 17.3937 18.5871 17.3817C18.4961 17.3698 18.4126 17.4338 18.4006 17.5249Z" fill="#000088"/>
<path id="Vector_20" d="M15.6741 14.25L17.6691 14.364L18.6191 14.25L17.6691 14.136L15.6741 14.25Z" fill="#000088"/>
</g>
<g id="a_8">
<path id="Vector_21" d="M17.5735 17.2583C17.5384 17.3431 17.5787 17.4404 17.6635 17.4755C17.7483 17.5107 17.8456 17.4704 17.8807 17.3855C17.9159 17.3007 17.8756 17.2035 17.7907 17.1683C17.7059 17.1332 17.6087 17.1735 17.5735 17.2583Z" fill="#000088"/>
<path id="Vector_22" d="M15.788 13.3894L17.6855 14.0159L18.6326 14.1516L17.7445 13.7957L15.788 13.3894Z" fill="#000088"/>
</g>
</g>
</g>
</g>
<g id="d_2">
<g id="c_3">
<g id="b_5">
<g id="a_9">
<path id="Vector_23" d="M16.844 16.7867C16.7881 16.8595 16.8018 16.9639 16.8747 17.0198C16.9475 17.0757 17.0519 17.062 17.1078 16.9891C17.1637 16.9163 17.1499 16.8119 17.0771 16.756C17.0042 16.7001 16.8999 16.7139 16.844 16.7867Z" fill="#000088"/>
<path id="Vector_24" d="M16.1201 12.5875L17.7908 13.6837L18.6705 14.06L17.9048 13.4863L16.1201 12.5875Z" fill="#000088"/>
</g>
<g id="a_10">
<path id="Vector_25" d="M16.2604 16.1422C16.1876 16.1981 16.1738 16.3025 16.2297 16.3753C16.2856 16.4482 16.39 16.4619 16.4628 16.406C16.5357 16.3501 16.5494 16.2458 16.4935 16.1729C16.4376 16.1001 16.3333 16.0863 16.2604 16.1422Z" fill="#000088"/>
<path id="Vector_26" d="M16.6485 11.8989L17.9786 13.3901L18.7309 13.9813L18.1398 13.2289L16.6485 11.8989Z" fill="#000088"/>
</g>
</g>
<g id="b_6">
<g id="a_11">
<path id="Vector_27" d="M15.8647 15.3688C15.7798 15.404 15.7396 15.5012 15.7747 15.5861C15.8098 15.6709 15.9071 15.7112 15.9919 15.676C16.0767 15.6409 16.117 15.5436 16.0819 15.4588C16.0467 15.374 15.9495 15.3337 15.8647 15.3688Z" fill="#000088"/>
<path id="Vector_28" d="M17.338 11.3705L18.2367 13.1552L18.8105 13.9209L18.4342 13.0412L17.338 11.3705Z" fill="#000088"/>
</g>
<g id="a_12">
<path id="Vector_29" d="M15.6824 14.5192C15.5914 14.5311 15.5273 14.6147 15.5393 14.7057C15.5513 14.7967 15.6348 14.8608 15.7258 14.8488C15.8168 14.8368 15.8809 14.7533 15.8689 14.6623C15.8569 14.5713 15.7734 14.5072 15.6824 14.5192Z" fill="#000088"/>
<path id="Vector_30" d="M18.1404 11.0383L18.5466 12.9948L18.9026 13.8829L18.7668 12.9358L18.1404 11.0383Z" fill="#000088"/>
</g>
</g>
</g>
<g id="c_4">
<g id="b_7">
<g id="a_13">
<path id="Vector_31" d="M15.7253 13.6512C15.6342 13.6392 15.5507 13.7033 15.5387 13.7943C15.5267 13.8853 15.5908 13.9688 15.6819 13.9808C15.7729 13.9928 15.8564 13.9287 15.8684 13.8377C15.8804 13.7467 15.8163 13.6632 15.7253 13.6512Z" fill="#000088"/>
<path id="Vector_32" d="M19.0003 10.925L18.8863 12.92L19.0003 13.87L19.1143 12.92L19.0003 10.925Z" fill="#000088"/>
</g>
<g id="a_14">
<path id="Vector_33" d="M15.9912 12.824C15.9064 12.7888 15.8091 12.8291 15.774 12.914C15.7389 12.9988 15.7792 13.096 15.864 13.1312C15.9488 13.1663 16.0461 13.126 16.0812 13.0412C16.1163 12.9564 16.0761 12.8591 15.9912 12.824Z" fill="#000088"/>
<path id="Vector_34" d="M19.8601 11.0383L19.2337 12.9358L19.0979 13.883L19.4539 12.9948L19.8601 11.0383Z" fill="#000088"/>
</g>
</g>
<g id="b_8">
<g id="a_15">
<path id="Vector_35" d="M16.4631 12.094C16.3903 12.0381 16.2859 12.0518 16.23 12.1246C16.1741 12.1975 16.1878 12.3019 16.2607 12.3577C16.3335 12.4136 16.4379 12.3999 16.4938 12.3271C16.5497 12.2542 16.5359 12.1499 16.4631 12.094Z" fill="#000088"/>
<path id="Vector_36" d="M20.6628 11.3705L19.5666 13.0412L19.1903 13.9209L19.7641 13.1552L20.6628 11.3705Z" fill="#000088"/>
</g>
<g id="a_16">
<path id="Vector_37" d="M17.1079 11.5109C17.052 11.438 16.9476 11.4243 16.8748 11.4802C16.802 11.5361 16.7882 11.6404 16.8441 11.7133C16.9 11.7861 17.0044 11.7999 17.0772 11.744C17.1501 11.6881 17.1638 11.5837 17.1079 11.5109Z" fill="#000088"/>
<path id="Vector_38" d="M21.3514 11.8989L19.8601 13.2289L19.269 13.9813L20.0214 13.3902L21.3514 11.8989Z" fill="#000088"/>
</g>
</g>
</g>
</g>
<g id="d_3">
<g id="c_5">
<g id="b_9">
<g id="a_17">
<path id="Vector_39" d="M17.8813 11.1145C17.8461 11.0296 17.7489 10.9893 17.664 11.0245C17.5792 11.0596 17.5389 11.1569 17.5741 11.2417C17.6092 11.3265 17.7065 11.3668 17.7913 11.3317C17.8761 11.2965 17.9164 11.1993 17.8813 11.1145Z" fill="#000088"/>
<path id="Vector_40" d="M21.8802 12.5875L20.0954 13.4863L19.3297 14.06L20.2094 13.6837L21.8802 12.5875Z" fill="#000088"/>
</g>
<g id="a_18">
<path id="Vector_41" d="M18.7308 10.9317C18.7188 10.8407 18.6353 10.7766 18.5443 10.7886C18.4532 10.8006 18.3892 10.8841 18.4012 10.9751C18.4131 11.0662 18.4966 11.1302 18.5877 11.1183C18.6787 11.1063 18.7428 11.0228 18.7308 10.9317Z" fill="#000088"/>
<path id="Vector_42" d="M22.2116 13.3894L20.2551 13.7957L19.367 14.1516L20.3141 14.0159L22.2116 13.3894Z" fill="#000088"/>
</g>
</g>
<g id="b_10">
<g id="a_19">
<path id="Vector_43" d="M19.5994 10.9751C19.6114 10.8841 19.5473 10.8006 19.4563 10.7886C19.3652 10.7766 19.2817 10.8407 19.2697 10.9317C19.2578 11.0228 19.3218 11.1063 19.4129 11.1183C19.5039 11.1302 19.5874 11.0662 19.5994 10.9751Z" fill="#000088"/>
<path id="Vector_44" d="M22.3259 14.25L20.3309 14.136L19.3809 14.25L20.3309 14.364L22.3259 14.25Z" fill="#000088"/>
</g>
<g id="a_20">
<path id="Vector_45" d="M20.4265 11.2417C20.4616 11.1569 20.4213 11.0596 20.3365 11.0245C20.2517 10.9893 20.1544 11.0296 20.1193 11.1145C20.0841 11.1993 20.1244 11.2965 20.2093 11.3317C20.2941 11.3668 20.3913 11.3265 20.4265 11.2417Z" fill="#000088"/>
<path id="Vector_46" d="M22.212 15.1106L20.3145 14.4841L19.3674 14.3484L20.2555 14.7043L22.212 15.1106Z" fill="#000088"/>
</g>
</g>
</g>
<g id="c_6">
<g id="b_11">
<g id="a_21">
<path id="Vector_47" d="M21.157 11.7133C21.2129 11.6405 21.1991 11.5361 21.1263 11.4802C21.0535 11.4243 20.9491 11.438 20.8932 11.5109C20.8373 11.5837 20.851 11.6881 20.9239 11.744C20.9967 11.7999 21.1011 11.7861 21.157 11.7133Z" fill="#000088"/>
<path id="Vector_48" d="M21.8809 15.9125L20.2102 14.8163L19.3304 14.44L20.0962 15.0137L21.8809 15.9125Z" fill="#000088"/>
</g>
<g id="a_22">
<path id="Vector_49" d="M21.7406 12.3578C21.8134 12.3019 21.8271 12.1975 21.7712 12.1247C21.7154 12.0518 21.611 12.0381 21.5381 12.094C21.4653 12.1499 21.4516 12.2542 21.5075 12.3271C21.5634 12.3999 21.6677 12.4137 21.7406 12.3578Z" fill="#000088"/>
<path id="Vector_50" d="M21.3525 16.6011L20.0224 15.1099L19.2701 14.5187L19.8612 15.2711L21.3525 16.6011Z" fill="#000088"/>
</g>
</g>
<g id="b_12">
<g id="a_23">
<path id="Vector_51" d="M22.1363 13.1312C22.2211 13.096 22.2614 12.9988 22.2263 12.9139C22.1911 12.8291 22.0939 12.7888 22.0091 12.824C21.9242 12.8591 21.884 12.9564 21.9191 13.0412C21.9542 13.126 22.0515 13.1663 22.1363 13.1312Z" fill="#000088"/>
<path id="Vector_52" d="M20.663 17.1295L19.7643 15.3448L19.1905 14.5791L19.5668 15.4588L20.663 17.1295Z" fill="#000088"/>
</g>
<g id="a_24">
<path id="Vector_53" d="M22.3186 13.9808C22.4096 13.9689 22.4737 13.8853 22.4617 13.7943C22.4497 13.7033 22.3662 13.6392 22.2752 13.6512C22.1841 13.6632 22.1201 13.7467 22.1321 13.8377C22.144 13.9287 22.2275 13.9928 22.3186 13.9808Z" fill="#000088"/>
<path id="Vector_54" d="M19.8606 17.4617L19.4544 15.5052L19.0984 14.6171L19.2342 15.5642L19.8606 17.4617Z" fill="#000088"/>
</g>
</g>
</g>
</g>
</g>
</g>
<defs>
<clipPath id="clip0_317_143">
<rect width="38" height="28.5" fill="white"/>
</clipPath>
</defs>
</svg>
