<svg width="18" height="19" viewBox="0 0 18 19" fill="none" xmlns="http://www.w3.org/2000/svg">
<g id="Group">
<g id="Group 1000006170">
<path id="Vector" d="M13.4954 0.987305H4.50458C2.0207 0.987305 0 3.00855 0 5.49311V13.7207C0 16.2052 2.0207 18.2265 4.50458 18.2265H13.4954C15.9793 18.2265 18 16.2052 18 13.7207V5.49311C18 3.00855 15.9793 0.987305 13.4954 0.987305ZM1.58908 5.49311C1.58908 3.88528 2.89718 2.57681 4.50458 2.57681H13.4954C15.1028 2.57681 16.4109 3.88528 16.4109 5.49311V13.7207C16.4109 15.3285 15.1028 16.637 13.4954 16.637H4.50458C2.89718 16.637 1.58908 15.3285 1.58908 13.7207V5.49311Z" fill="#353030"/>
<path id="Vector_2" d="M8.9996 13.7978C11.3094 13.7978 13.1896 11.9181 13.1896 9.60668C13.1896 7.29522 11.3104 5.41551 8.9996 5.41551C6.68877 5.41551 4.80957 7.29522 4.80957 9.60668C4.80957 11.9181 6.68877 13.7978 8.9996 13.7978ZM8.9996 7.00604C10.4339 7.00604 11.6005 8.17296 11.6005 9.6077C11.6005 11.0424 10.4339 12.2094 8.9996 12.2094C7.56526 12.2094 6.39865 11.0424 6.39865 9.6077C6.39865 8.17296 7.56526 7.00604 8.9996 7.00604Z" fill="#353030"/>
<path id="Vector_3" d="M13.5784 6.09282C14.2004 6.09282 14.7074 5.58675 14.7074 4.96357C14.7074 4.3404 14.2014 3.83432 13.5784 3.83432C12.9554 3.83432 12.4495 4.3404 12.4495 4.96357C12.4495 5.58675 12.9554 6.09282 13.5784 6.09282Z" fill="#353030"/>
</g>
</g>
</svg>
