<svg width="31" height="30" viewBox="0 0 31 30" fill="none" xmlns="http://www.w3.org/2000/svg">
<g id="ion:logo-instagram">
<path id="Vector" d="M21.1355 4.0623C22.5847 4.06663 23.9733 4.64423 24.998 5.66896C26.0228 6.69369 26.6004 8.08227 26.6047 9.53145V20.4686C26.6004 21.9177 26.0228 23.3063 24.998 24.331C23.9733 25.3558 22.5847 25.9334 21.1355 25.9377H10.1984C8.74926 25.9334 7.36068 25.3558 6.33595 24.331C5.31123 23.3063 4.73362 21.9177 4.7293 20.4686V9.53145C4.73362 8.08227 5.31123 6.69369 6.33595 5.66896C7.36068 4.64423 8.74926 4.06663 10.1984 4.0623H21.1355ZM21.1355 1.875H10.1984C5.9873 1.875 2.54199 5.32031 2.54199 9.53145V20.4686C2.54199 24.6797 5.9873 28.125 10.1984 28.125H21.1355C25.3467 28.125 28.792 24.6797 28.792 20.4686V9.53145C28.792 5.32031 25.3467 1.875 21.1355 1.875Z" fill="white"/>
<path id="Vector_2" d="M22.7762 9.53145C22.4517 9.53145 22.1345 9.43522 21.8647 9.25495C21.5949 9.07468 21.3846 8.81844 21.2604 8.51866C21.1363 8.21887 21.1038 7.889 21.1671 7.57075C21.2304 7.2525 21.3866 6.96017 21.6161 6.73072C21.8455 6.50128 22.1379 6.34502 22.4561 6.28172C22.7744 6.21842 23.1042 6.25091 23.404 6.37508C23.7038 6.49926 23.96 6.70954 24.1403 6.97934C24.3206 7.24914 24.4168 7.56633 24.4168 7.89082C24.4173 8.1064 24.3751 8.31995 24.2929 8.51921C24.2106 8.71847 24.0897 8.89951 23.9373 9.05195C23.7849 9.20439 23.6038 9.32522 23.4046 9.4075C23.2053 9.48979 22.9918 9.53191 22.7762 9.53145ZM15.667 10.6248C16.5323 10.6248 17.3782 10.8814 18.0977 11.3622C18.8172 11.8429 19.378 12.5262 19.7091 13.3257C20.0403 14.1251 20.1269 15.0049 19.9581 15.8536C19.7893 16.7023 19.3726 17.4818 18.7607 18.0937C18.1488 18.7056 17.3693 19.1223 16.5206 19.2911C15.6718 19.4599 14.7921 19.3733 13.9927 19.0422C13.1932 18.711 12.5099 18.1502 12.0292 17.4307C11.5484 16.7112 11.2918 15.8653 11.2918 15C11.293 13.84 11.7544 12.7279 12.5746 11.9076C13.3949 11.0874 14.507 10.626 15.667 10.6248ZM15.667 8.4375C14.3691 8.4375 13.1003 8.82238 12.0211 9.54348C10.9419 10.2646 10.1007 11.2895 9.60404 12.4886C9.10734 13.6878 8.97738 15.0073 9.23059 16.2803C9.48381 17.5533 10.1088 18.7226 11.0266 19.6404C11.9444 20.5582 13.1137 21.1832 14.3867 21.4364C15.6597 21.6896 16.9792 21.5597 18.1784 21.063C19.3775 20.5663 20.4024 19.7251 21.1235 18.6459C21.8446 17.5667 22.2295 16.2979 22.2295 15C22.2295 13.2595 21.5381 11.5903 20.3074 10.3596C19.0767 9.1289 17.4075 8.4375 15.667 8.4375Z" fill="white"/>
</g>
</svg>
