<svg width="18" height="19" viewBox="0 0 18 19" fill="none" xmlns="http://www.w3.org/2000/svg">
<g id="map-pin" clip-path="url(#clip0_256_160)">
<g id="Group 1000006196">
<path id="Vector" d="M15.1364 8.55549C15.1364 13.5668 8.69318 17.8623 8.69318 17.8623C8.69318 17.8623 2.25 13.5668 2.25 8.55549C2.25 6.84665 2.92883 5.2078 4.13716 3.99947C5.34549 2.79114 6.98434 2.1123 8.69318 2.1123C10.402 2.1123 12.0409 2.79114 13.2492 3.99947C14.4575 5.2078 15.1364 6.84665 15.1364 8.55549Z" stroke="#6C6C6C" stroke-width="1.5" stroke-linecap="round" stroke-linejoin="round"/>
<path id="Vector_2" d="M8.69314 10.7032C9.87929 10.7032 10.8409 9.74163 10.8409 8.55547C10.8409 7.36932 9.87929 6.40775 8.69314 6.40775C7.50698 6.40775 6.54541 7.36932 6.54541 8.55547C6.54541 9.74163 7.50698 10.7032 8.69314 10.7032Z" stroke="#6C6C6C" stroke-width="1.5" stroke-linecap="round" stroke-linejoin="round"/>
</g>
</g>
<defs>
<clipPath id="clip0_256_160">
<rect width="18" height="18" fill="white" transform="translate(0 0.987305)"/>
</clipPath>
</defs>
</svg>
