<svg width="31" height="30" viewBox="0 0 31 30" fill="none" xmlns="http://www.w3.org/2000/svg">
<g id="mdi:link-variant">
<path id="Vector" d="M13.5702 16.7625C14.0827 17.25 14.0827 18.05 13.5702 18.5375C13.0827 19.025 12.2827 19.025 11.7952 18.5375C10.6244 17.365 9.9668 15.7757 9.9668 14.1187C9.9668 12.4618 10.6244 10.8725 11.7952 9.7L16.2202 5.275C17.3927 4.10422 18.9819 3.44664 20.6389 3.44664C22.2959 3.44664 23.8851 4.10422 25.0577 5.275C26.2284 6.44754 26.886 8.03678 26.886 9.69375C26.886 11.3507 26.2284 12.94 25.0577 14.1125L23.1952 15.975C23.2077 14.95 23.0452 13.925 22.6952 12.95L23.2827 12.35C23.6331 12.0034 23.9113 11.5907 24.1011 11.1358C24.291 10.6809 24.3888 10.1929 24.3888 9.7C24.3888 9.2071 24.291 8.71908 24.1011 8.26421C23.9113 7.80934 23.6331 7.39664 23.2827 7.05C22.936 6.69958 22.5233 6.42139 22.0684 6.23152C21.6136 6.04166 21.1256 5.9439 20.6327 5.9439C20.1398 5.9439 19.6517 6.04166 19.1969 6.23152C18.742 6.42139 18.3293 6.69958 17.9827 7.05L13.5702 11.4625C13.2197 11.8091 12.9415 12.2218 12.7517 12.6767C12.5618 13.1316 12.4641 13.6196 12.4641 14.1125C12.4641 14.6054 12.5618 15.0934 12.7517 15.5483C12.9415 16.0032 13.2197 16.4159 13.5702 16.7625ZM17.0952 11.4625C17.5827 10.975 18.3827 10.975 18.8702 11.4625C20.0409 12.635 20.6985 14.2243 20.6985 15.8813C20.6985 17.5382 20.0409 19.1275 18.8702 20.3L14.4452 24.725C13.2726 25.8958 11.6834 26.5534 10.0264 26.5534C8.36944 26.5534 6.7802 25.8958 5.60766 24.725C4.43688 23.5525 3.7793 21.9632 3.7793 20.3063C3.7793 18.6493 4.43688 17.06 5.60766 15.8875L7.47016 14.025C7.45766 15.05 7.62016 16.075 7.97016 17.0625L7.38266 17.65C7.03224 17.9966 6.75405 18.4093 6.56419 18.8642C6.37432 19.3191 6.27656 19.8071 6.27656 20.3C6.27656 20.7929 6.37432 21.2809 6.56419 21.7358C6.75405 22.1907 7.03224 22.6034 7.38266 22.95C7.7293 23.3004 8.142 23.5786 8.59687 23.7685C9.05174 23.9583 9.53976 24.0561 10.0327 24.0561C10.5256 24.0561 11.0136 23.9583 11.4684 23.7685C11.9233 23.5786 12.336 23.3004 12.6827 22.95L17.0952 18.5375C17.4456 18.1909 17.7238 17.7782 17.9136 17.3233C18.1035 16.8684 18.2013 16.3804 18.2013 15.8875C18.2013 15.3946 18.1035 14.9066 17.9136 14.4517C17.7238 13.9968 17.4456 13.5841 17.0952 13.2375C16.9738 13.1237 16.877 12.9863 16.8108 12.8336C16.7447 12.681 16.7105 12.5164 16.7105 12.35C16.7105 12.1836 16.7447 12.019 16.8108 11.8664C16.877 11.7137 16.9738 11.5763 17.0952 11.4625Z" fill="white"/>
</g>
</svg>
