<svg width="24" height="24" viewBox="0 0 24 24" fill="none" xmlns="http://www.w3.org/2000/svg">
<g id="noun-open-link-3560696 1">
<path id="Vector" d="M5.06333 19.56C5.24006 19.9864 5.5393 20.3509 5.9232 20.6072C6.3071 20.8635 6.75839 21.0002 7.22 21H17.3333C18.3058 21 19.2384 20.6137 19.9261 19.9261C20.6137 19.2384 21 18.3058 21 17.3333V6.66667C21 5.69421 20.6137 4.76157 19.9261 4.07394C19.2384 3.38631 18.3058 3 17.3333 3H6.66667C5.69421 3 4.76157 3.38631 4.07394 4.07394C3.38631 4.76157 3 5.69421 3 6.66667V13.3333H5V6.66667C5 6.22464 5.17559 5.80072 5.48816 5.48816C5.80072 5.17559 6.22464 5 6.66667 5H17.3333C17.7754 5 18.1993 5.17559 18.5118 5.48816C18.8244 5.80072 19 6.22464 19 6.66667V17.3333C19 17.7754 18.8244 18.1993 18.5118 18.5118C18.1993 18.8244 17.7754 19 17.3333 19H7.22C7.15379 19.0004 7.08897 18.981 7.0338 18.9444C6.97862 18.9078 6.9356 18.8556 6.91021 18.7945C6.88482 18.7333 6.87822 18.666 6.89124 18.6011C6.90426 18.5362 6.93632 18.4766 6.98333 18.43L13.6667 11.7467V15.6667H15.6667V9.33333C15.6667 9.06812 15.5613 8.81376 15.3738 8.62623C15.1862 8.43869 14.9319 8.33333 14.6667 8.33333H8.33333V10.3333H12.2533L5.57 17.0167C5.24343 17.3429 5.02098 17.7587 4.93079 18.2115C4.84061 18.6642 4.88673 19.1335 5.06333 19.56Z" fill="#6139FF" stroke="white" stroke-width="0.3375"/>
</g>
</svg>
