<svg width="31" height="30" viewBox="0 0 31 30" fill="none" xmlns="http://www.w3.org/2000/svg">
<g id="radix-icons:twitter-logo">
<path id="Vector" fill-rule="evenodd" clip-rule="evenodd" d="M14.7991 9.392C14.7991 5.938 17.5991 3.138 21.0531 3.138C23.0811 3.138 24.6991 4.096 25.7831 5.488C26.9297 5.25299 28.0289 4.82778 29.0351 4.23C28.6455 5.44241 27.8298 6.47263 26.7391 7.13L26.7431 7.136C27.7785 7.0109 28.7896 6.73252 29.7431 6.31L29.7411 6.314C29.0671 7.324 28.2211 8.214 27.2451 8.94C27.2971 9.294 27.3251 9.648 27.3251 10C27.3251 17.374 21.7071 25.95 11.3751 25.95C8.32852 25.9527 5.34563 25.0778 2.78311 23.43C2.66247 23.3526 2.55989 23.2501 2.48231 23.1296C2.40474 23.009 2.35399 22.8732 2.33351 22.7313C2.31302 22.5894 2.32328 22.4448 2.36358 22.3073C2.40389 22.1697 2.4733 22.0424 2.56711 21.934C2.65632 21.7857 2.7864 21.6662 2.94177 21.59C3.09714 21.5137 3.27121 21.4839 3.44311 21.504C5.27511 21.72 7.10311 21.496 8.71711 20.792C7.92103 20.4403 7.20834 19.9241 6.62581 19.2775C6.04329 18.6309 5.60412 17.8684 5.33711 17.04C5.28774 16.8859 5.28082 16.7214 5.31707 16.5637C5.35332 16.406 5.43141 16.261 5.54311 16.144C4.88583 15.5672 4.35935 14.8566 3.99891 14.0598C3.63847 13.2631 3.45238 12.3985 3.45311 11.524V11.456C3.45306 11.2468 3.52592 11.0441 3.65914 10.8827C3.79237 10.7214 3.97765 10.6115 4.18311 10.572C3.72967 9.69695 3.49368 8.72555 3.49511 7.74C3.49511 6.804 3.50111 5.624 4.15911 4.56C4.22941 4.44728 4.3238 4.35152 4.43549 4.2796C4.54718 4.20767 4.6734 4.16137 4.80511 4.144C4.99609 4.08377 5.20074 4.08226 5.39259 4.13967C5.58443 4.19708 5.75462 4.31076 5.88111 4.466C8.11055 7.20858 11.2993 9.001 14.8011 9.48V9.392H14.7991ZM11.3751 23.95C9.84489 23.9511 8.32504 23.6991 6.87711 23.204C8.61869 22.9167 10.2614 22.2005 11.6571 21.12C11.8034 21.0053 11.9105 20.848 11.9638 20.6699C12.0172 20.4918 12.014 20.3016 11.9548 20.1254C11.8956 19.9491 11.7833 19.7955 11.6333 19.6857C11.4833 19.5759 11.303 19.5152 11.1171 19.512C10.4475 19.5 9.7898 19.3334 9.19518 19.0253C8.60056 18.7173 8.08514 18.276 7.68911 17.736C8.06911 17.706 8.44111 17.64 8.80111 17.544C8.99735 17.4915 9.17008 17.3742 9.29119 17.2111C9.41231 17.0481 9.4747 16.8488 9.46821 16.6458C9.46172 16.4428 9.38673 16.2479 9.25545 16.0929C9.12417 15.9379 8.9443 15.8318 8.74511 15.792C7.98422 15.6378 7.2783 15.2833 6.70027 14.7651C6.12224 14.2468 5.69307 13.5836 5.45711 12.844C5.85711 12.94 6.27511 12.998 6.70311 13.012C6.8987 13.0186 7.0911 12.9612 7.25117 12.8486C7.41124 12.736 7.53024 12.5744 7.59016 12.3881C7.65007 12.2017 7.64763 12.001 7.5832 11.8162C7.51877 11.6314 7.39587 11.4727 7.23311 11.364C6.63631 10.9664 6.14696 10.4276 5.80852 9.79535C5.47008 9.16313 5.29303 8.45711 5.29311 7.74C5.29311 7.404 5.29911 7.106 5.31911 6.834C8.11766 9.68998 11.8895 11.3867 15.8831 11.586C16.0373 11.5938 16.1913 11.5659 16.3329 11.5043C16.4744 11.4427 16.5999 11.3491 16.6992 11.2309C16.7986 11.1127 16.8693 10.9732 16.9057 10.8231C16.9421 10.673 16.9433 10.5166 16.9091 10.366C16.7622 9.7415 16.7585 9.09187 16.8982 8.46573C17.0379 7.83958 17.3174 7.25314 17.7158 6.75029C18.1142 6.24744 18.6211 5.84121 19.1987 5.56201C19.7763 5.2828 20.4096 5.13785 21.0511 5.138C23.5191 5.138 25.3231 7.424 25.3231 10.002C25.3231 16.514 20.3731 23.95 11.3751 23.95Z" fill="white"/>
</g>
</svg>
