<svg width="18" height="18" viewBox="0 0 18 18" fill="none" xmlns="http://www.w3.org/2000/svg">
<g id="Group">
<path id="Vector" d="M11.694 13.1487C8.15748 13.1487 5.28026 10.2697 5.2793 6.73228C5.28026 5.83557 6.01022 5.10638 6.90475 5.10638C6.99672 5.10638 7.08771 5.11413 7.17484 5.12962C7.36653 5.16158 7.54854 5.22646 7.71602 5.32427C7.74023 5.33879 7.75668 5.36203 7.76055 5.38915L8.13424 7.74519C8.13908 7.77327 8.13037 7.80039 8.11198 7.82072C7.90577 8.04926 7.64244 8.21388 7.34911 8.29619L7.20777 8.3359L7.26101 8.47244C7.74312 9.70033 8.72479 10.6813 9.95331 11.1655L10.0898 11.2197L10.1295 11.0783C10.2118 10.7849 10.3764 10.5215 10.6048 10.3152C10.6213 10.2997 10.6436 10.292 10.6658 10.292C10.6707 10.292 10.6755 10.292 10.6813 10.293L13.0367 10.6668C13.0648 10.6716 13.088 10.6871 13.1026 10.7113C13.1994 10.8788 13.2642 11.0619 13.2972 11.2536C13.3126 11.3388 13.3194 11.4289 13.3194 11.5228C13.3194 12.4185 12.5904 13.1477 11.694 13.1487Z" fill="#3A3A3A"/>
<path id="Vector_2" d="M17.9661 8.32929C17.7754 6.1737 16.7879 4.17402 15.1857 2.69919C13.5738 1.21565 11.4827 0.398346 9.29576 0.398346C4.49589 0.398346 0.590554 4.30475 0.590554 9.10592C0.590554 10.7173 1.03491 12.287 1.87619 13.6544L0 17.8087L6.0071 17.1686C7.05169 17.5966 8.15726 17.8135 9.29479 17.8135C9.59393 17.8135 9.90083 17.798 10.2087 17.7661C10.4798 17.737 10.7537 17.6944 11.0229 17.6402C15.0424 16.8277 17.9768 13.2593 18 9.15241V9.10592C18 8.84447 17.9884 8.583 17.9652 8.32929H17.9661ZM6.23848 15.3451L2.91498 15.6996L3.90729 13.5004L3.70882 13.2341C3.6943 13.2147 3.67978 13.1953 3.66332 13.1731C2.80171 11.983 2.34669 10.5769 2.34669 9.10689C2.34669 5.27409 5.46399 2.15594 9.29576 2.15594C12.8855 2.15594 15.9283 4.95743 16.2216 8.53362C16.2371 8.72536 16.2458 8.91806 16.2458 9.10786C16.2458 9.16209 16.2448 9.21535 16.2439 9.27248C16.1703 12.4788 13.931 15.2018 10.7983 15.8952C10.5591 15.9484 10.3142 15.9891 10.0702 16.0152C9.8166 16.0443 9.55618 16.0588 9.29769 16.0588C8.37702 16.0588 7.4825 15.8806 6.63734 15.5282C6.54343 15.4904 6.45146 15.4497 6.3653 15.4081L6.23945 15.3471L6.23848 15.3451Z" fill="#3A3A3A"/>
</g>
</svg>
