<svg width="22" height="16" viewBox="0 0 22 16" fill="none" xmlns="http://www.w3.org/2000/svg">
<g id="Group">
<path id="Vector" d="M4.9573 15.3887C8.82945 15.3911 12.7028 15.3947 16.5761 15.3982L16.5853 15.3982C17.0823 15.3994 17.6007 15.3899 18.1072 15.3349M4.9573 15.3887L18.1072 15.3349M4.9573 15.3887C3.73764 15.3887 2.40927 15.3493 1.46675 14.5737L4.9573 15.3887ZM18.1072 15.3349L18.1069 15.3322L18.0263 14.5893C17.9852 14.5938 17.9439 14.5979 17.9025 14.6017L17.765 14.6167L17.5785 14.803L17.5773 14.8042L18.1072 15.3349ZM19.6818 1.41904L19.6815 1.41879C19.087 0.997225 18.2587 0.954754 17.2093 0.954742C16.1449 0.955937 15.0803 0.956834 14.0158 0.95773C12.9511 0.958626 11.8866 0.959522 10.8224 0.960717L19.6818 1.41904ZM19.6818 1.41904C20.4352 1.95261 20.7144 3.03961 20.8493 4.35364L20.8493 4.35385M19.6818 1.41904L20.8493 4.35385M20.8493 4.35385C21.089 6.68248 21.0925 9.03568 20.8587 11.364L20.8493 4.35385ZM7.75019 0.963705C6.72671 0.964601 5.70335 0.965497 4.68001 0.966692L7.75019 0.963705ZM7.75019 0.963705L7.75088 0.963705M7.75019 0.963705L7.75088 0.963705M7.75088 0.963705C8.7746 0.962808 9.79846 0.961912 10.8223 0.960717L7.75088 0.963705ZM1.94382 13.995C1.16118 13.3494 0.934045 12.1599 0.846307 10.7581L0.846267 10.7575C0.728655 8.90335 0.719225 7.04303 0.8157 5.18709L0.815701 5.18707C0.869529 4.15088 0.962635 3.22744 1.33764 2.43891L1.94382 13.995ZM1.33771 2.43876C1.5993 1.88913 2.02066 1.43106 2.51395 1.20152L1.33771 2.43876ZM2.51416 1.20142C3.03808 0.957973 3.56957 0.961094 4.31592 0.965477C4.43179 0.966158 4.55284 0.966869 4.67984 0.966692L2.51416 1.20142Z" stroke="#353030" stroke-width="1.5"/>
<path id="Vector_2" d="M14.3568 7.80313L8.57983 4.46689V11.1394L14.3568 7.80313Z" fill="#353030"/>
</g>
</svg>
